**ABCDEFGHIJKLMNOPQRSTUVWXYZabcdefghijklmnopqrstuvwxyz**************************
**PARASOLID !"#$%&'()*+,-./:;<=>?@[\]^_`{|}~0123456789**************************
**PART1;
MC=AMD64;
MC_MODEL=Intel64 Family 6 Model 186 Stepping 3, GenuineIntel;
MC_ID=unknown;
OS=Windows_NT;
OS_RELEASE=unknown;
FRU=Parasolid Version 34.1, build 247, 10- 7-2022;
APPL=SOLIDWORKS 2023-2023096;
SITE=;
USER=unknown;
FORMAT=text;
GUISE=transmit;
KEY=makeProjectedPlanarWire;
FILE=makeProjectedPlanarWire.x_t;
DATE=Thu Sep 12 20:08:47 2024;
**PART2;
SCH=SCH_3401247_34101;
USFLD_SIZE=0;
**PART3;
**END_OF_HEADER*****************************************************************
T51 : TRANSMIT FILE created by modeller version 340124723 SCH_3401247_34101_1300
6231 0 12 36 CCCI7 lattice222 0 CCCI4 mesh1006 0 I8 polyline1008 0 CCCCCCCDI5 ow
ner1040 0 CCCI16 boundary_lattice222 0 CCCI13 boundary_mesh1006 0 I17 boundary_p
olyline1008 0 CCCA16 index_map_offset0 0 1 dA9 index_map82 0 A17 node_id_index_m
ap82 0 A20 schema_embedding_map82 0 A5 child12 0 A14 lowest_node_id0 0 1 dA16 me
sh_offset_data206 0 Z1 63 2 3 0 0 0 0 0 0 0 1e3 1e-8 0 4 0 1 0 3 1 5 0 6 7 8 0 0
 9 10 11 0 0 0 0 0 0 0 81 255 2 2 53 12 1 0 0 0 0 13 0 70 11 CI9 list_type0 0 1
 uI10 notransmit0 0 1 lCCCDCCDI12 finger_index0 0 1 dI12 finger_block1012 0 CZ3
 0 4 T1 0 0 2 20 1 14 14 13 255 5 59 0 1 0 15 0 0 9 15 51 255 6 27 0 1 16 0 17 -
0 508e-6 .0850159134918727 0 -1 0 .01436727179910946 0 0 -1 30 255 7 31 0 18 19
 0 0 +-.00550742901530177 508e-6 .0607924125826921 0 0 -1 29 255 8 50 0 11 20 0
 .00550742901530177 508e-6 .0717558734998176 19 9 CCCCCCI5 frame230 0 CA5 owner1
2 0 Z9 58 0 1 0 0 5 0 V0 16 255 10 32 0 ?21 0 18 22 23 23 1 18 255 11 48 0 24 0
 25 8 ?1 17 255 24 0 0 0 0 11 26 27 0 21 +18 25 45 0 28 11 29 20 ?1 17 28 0 30 2
1 31 25 32 18 0 33 -18 29 42 0 31 25 34 35 ?1 29 20 47 0 25 35 8 -.0055074290153
0177 508e-6 .0717558734998176 29 35 44 0 29 36 20 -.00550742901530177 508e-6 .07
17461461769987 29 36 41 0 34 37 35 -.00553080811080875 0 .0717558734998176 18 34
 39 0 38 29 39 36 ?1 29 37 38 0 39 40 36 .00553080811080875 0 .0717558734998176
 18 39 36 0 41 34 42 37 ?1 29 40 35 0 42 0 37 .00550742901530177 508e-6 .0717461
461769987 18 42 33 0 26 39 0 40 ?1 17 26 0 30 41 21 42 24 27 0 43 -15 255 30 8 0
 26 15 0 17 41 0 30 38 26 39 43 44 0 45 +17 21 0 30 26 28 11 33 10 0 0 +16 27 12
 0 ?24 44 46 47 0 0 1 17 43 0 0 0 0 42 41 44 0 0 -16 44 15 0 ?41 23 27 48 0 0 1
 16 23 21 0 ?38 49 44 22 10 10 1 38 12 CCCCCCCCCCCA17 intersection_data204 0 Z48
 20 0 44 47 22 0 +16 6 50 51 52 53 30 47 14 0 27 54 48 0 -.00550742901530177 508
e-6 .0607924125826921 0 0 -1 31 255 22 23 0 23 48 19 0 +0 0 .0717558734998176 0
 0 -1 -1 0 0 .00553080811080875 51 16 26 0 15 0 6 55 +0 0 .0607924125826921 0 0
 -1 .00553080811080875 -1 0 0 40 255 2 50 0 1 2 253219848343098e-19 .09953787149
91845 ??.00550742901530177 508e-6 .0717461461769987 .00553080811080875 -11498471
8931318e-33 .0717558734998176 41 3 CI8 term_use0 0 1 cCZ1 51 L?.0055074290153017
7 508e-6 .0717461461769987 41 1 52 L?.00553080811080875 -114984718931318e-33 .07
17558734998176 204 2 17 INTERSECTION_DATA17 Intersection data7 uv_type0 0 1 u6 v
alues0 1 1 fT8 53 4 3.04961387117922 -.0109537335943066 .3934007348881505 0 3.14
1592653589795 -.0109634609171256 .395163212028265 508e-6 14 255 15 1 56 ?0 0 57
 5 16 +0 0 0 0 5 141 255 55 48 58 58 16 141 58 19 55 55 16 38 19 28 0 49 22 7 0
 +16 6 59 60 61 62 16 49 24 0 ?31 18 23 19 0 0 1 40 2 59 0 1 2 253219848343106e-
19 .0995378714991845 ??-.00553080811080875 0 .0717558734998176 -.005507429015301
77 508e-6 .0717461461769987 41 1 60 L?-.00553080811080875 0 .0717558734998176 41
 1 61 L?-.00550742901530177 508e-6 .0717461461769987 204 8 62 4 0 -.010963460917
1256 5.88802209515132 508e-6 .0919787824105745 -.0109537335943066 5.889784572291
44 0 17 31 0 30 28 38 29 63 49 0 32 +16 18 29 0 ?32 10 49 7 0 0 1 17 32 0 0 0 0
 29 28 18 0 0 +17 38 0 30 31 41 34 45 23 0 63 +17 63 0 0 0 0 34 31 49 0 0 -17 45
 0 0 0 0 39 38 23 0 0 -81 1 56 63 64 15 0 0 0 0 65 15 57 7 0 66 15 30 17 66 0 57
 66 66 0 67 46 0 0 -17 67 0 0 0 0 0 66 46 0 0 +16 46 9 0 ?67 27 0 54 0 0 1 31 54
 11 0 46 0 47 0 +0 0 .0607924125826921 0 0 -1 -1 0 0 .00553080811080875 80 7 CCC
CCDI12 legal_owners0 16 1 lCZ1 64 68 69 9000 1 1 1 1 1 1 1 1 0 FFFFTFTFFFFFFFFF1
 82 255 1 65 1917452823 79 255 14 69 SWEntUnchanged17 33 0 0 0 0 25 21 10 0 0 -1
41 17 48 70 70 6 141 70 19 17 17 6 74 4 CI16 index_map_offset0 0 1 dCCZ20 14 2 0
 0 2 56 0 0 0 0 0 0 0 0 0 0 0 0 0 0 0 0 0 0 80 2 12 71 72 9000 0 0 0 0 3 5 0 0 0
 FFTFTTTFFTFFFFFF3 3 84 255 13 13 Boss-Extrude579 21 72 SWIMPLICITBODYNAME_ID1 0
 
